name rise32.9588peak41.5061fall63.4684.mot
datacolumns 19
datarows 56
range 6.244974 6.336650
endheader
time	ground_force1_vx	ground_force1_vy	ground_force1_vz	ground_force1_px	ground_force1_py	ground_force1_pz	ground_force2_vx	ground_force2_vy	ground_force2_vz	ground_force2_px	ground_force2_py	ground_force2_pz	ground_torque1_x	ground_torque1_y	ground_torque1_z	ground_torque2_x	ground_torque2_y	ground_torque2_z	
6.244974	-6.949140	765.848959	44.751926	0.188394	0.000000	0.112134	0.000000	0.000000	0.000000	0.000000	0.000000	0.000000	0.000000	20.618385	0.000000	0.000000	0.000000	0.000000	
6.246640	-7.509224	767.661824	44.851202	0.187478	0.000000	0.112063	0.000000	0.000000	0.000000	0.000000	0.000000	0.000000	0.000000	20.709241	0.000000	0.000000	0.000000	0.000000	
6.248308	-8.066766	769.482902	44.958043	0.186576	0.000000	0.111992	0.000000	0.000000	0.000000	0.000000	0.000000	0.000000	0.000000	20.800431	0.000000	0.000000	0.000000	0.000000	
6.249980	-8.621169	771.310311	45.072441	0.185689	0.000000	0.111923	0.000000	0.000000	0.000000	0.000000	0.000000	0.000000	0.000000	20.891785	0.000000	0.000000	0.000000	0.000000	
6.251646	-9.171856	773.142104	45.194365	0.184817	0.000000	0.111854	0.000000	0.000000	0.000000	0.000000	0.000000	0.000000	0.000000	20.983130	0.000000	0.000000	0.000000	0.000000	
6.253315	-9.718277	774.976273	45.323761	0.183960	0.000000	0.111786	0.000000	0.000000	0.000000	0.000000	0.000000	0.000000	0.000000	21.074286	0.000000	0.000000	0.000000	0.000000	
6.254982	-10.259910	776.810751	45.460550	0.183119	0.000000	0.111719	0.000000	0.000000	0.000000	0.000000	0.000000	0.000000	0.000000	21.165073	0.000000	0.000000	0.000000	0.000000	
6.256644	-10.796263	778.643413	45.604630	0.182294	0.000000	0.111653	0.000000	0.000000	0.000000	0.000000	0.000000	0.000000	0.000000	21.255310	0.000000	0.000000	0.000000	0.000000	
6.258311	-11.326874	780.472080	45.755873	0.181484	0.000000	0.111587	0.000000	0.000000	0.000000	0.000000	0.000000	0.000000	0.000000	21.344811	0.000000	0.000000	0.000000	0.000000	
6.259980	-11.851316	782.294521	45.914127	0.180689	0.000000	0.111522	0.000000	0.000000	0.000000	0.000000	0.000000	0.000000	0.000000	21.433390	0.000000	0.000000	0.000000	0.000000	
6.261644	-12.369199	784.108455	46.079212	0.179908	0.000000	0.111458	0.000000	0.000000	0.000000	0.000000	0.000000	0.000000	0.000000	21.520861	0.000000	0.000000	0.000000	0.000000	
6.263314	-12.880168	785.911556	46.250923	0.179142	0.000000	0.111394	0.000000	0.000000	0.000000	0.000000	0.000000	0.000000	0.000000	21.607037	0.000000	0.000000	0.000000	0.000000	
6.264974	-13.383908	787.701453	46.429030	0.178389	0.000000	0.111331	0.000000	0.000000	0.000000	0.000000	0.000000	0.000000	0.000000	21.691733	0.000000	0.000000	0.000000	0.000000	
6.266646	-13.880143	789.475735	46.613275	0.177649	0.000000	0.111268	0.000000	0.000000	0.000000	0.000000	0.000000	0.000000	0.000000	21.774762	0.000000	0.000000	0.000000	0.000000	
6.268313	-14.368636	791.231956	46.803374	0.176921	0.000000	0.111206	0.000000	0.000000	0.000000	0.000000	0.000000	0.000000	0.000000	21.855941	0.000000	0.000000	0.000000	0.000000	
6.269976	-14.849194	792.967633	46.999014	0.176204	0.000000	0.111144	0.000000	0.000000	0.000000	0.000000	0.000000	0.000000	0.000000	21.935087	0.000000	0.000000	0.000000	0.000000	
6.271643	-15.321665	794.680256	47.199859	0.175498	0.000000	0.111082	0.000000	0.000000	0.000000	0.000000	0.000000	0.000000	0.000000	22.012021	0.000000	0.000000	0.000000	0.000000	
6.273311	-15.785938	796.367287	47.405543	0.174800	0.000000	0.111021	0.000000	0.000000	0.000000	0.000000	0.000000	0.000000	0.000000	22.086567	0.000000	0.000000	0.000000	0.000000	
6.274979	-16.241946	798.026163	47.615676	0.174110	0.000000	0.110960	0.000000	0.000000	0.000000	0.000000	0.000000	0.000000	0.000000	22.158550	0.000000	0.000000	0.000000	0.000000	
6.276646	-16.689663	799.654305	47.829840	0.173428	0.000000	0.110899	0.000000	0.000000	0.000000	0.000000	0.000000	0.000000	0.000000	22.227803	0.000000	0.000000	0.000000	0.000000	
6.278312	-17.129107	801.249115	48.047592	0.172750	0.000000	0.110838	0.000000	0.000000	0.000000	0.000000	0.000000	0.000000	0.000000	22.294160	0.000000	0.000000	0.000000	0.000000	
6.279978	-17.560336	802.807982	48.268462	0.172078	0.000000	0.110778	0.000000	0.000000	0.000000	0.000000	0.000000	0.000000	0.000000	22.357461	0.000000	0.000000	0.000000	0.000000	
6.281644	-17.983453	804.328287	48.491958	0.171408	0.000000	0.110718	0.000000	0.000000	0.000000	0.000000	0.000000	0.000000	0.000000	22.417554	0.000000	0.000000	0.000000	0.000000	
6.283307	-18.398597	805.807406	48.717562	0.170741	0.000000	0.110658	0.000000	0.000000	0.000000	0.000000	0.000000	0.000000	0.000000	22.474289	0.000000	0.000000	0.000000	0.000000	
6.284980	-18.805950	807.242711	48.944731	0.170074	0.000000	0.110598	0.000000	0.000000	0.000000	0.000000	0.000000	0.000000	0.000000	22.527525	0.000000	0.000000	0.000000	0.000000	
6.286641	-19.205732	808.631576	49.172901	0.169406	0.000000	0.110538	0.000000	0.000000	0.000000	0.000000	0.000000	0.000000	0.000000	22.577128	0.000000	0.000000	0.000000	0.000000	
6.288309	-19.598202	809.971379	49.401486	0.168737	0.000000	0.110478	0.000000	0.000000	0.000000	0.000000	0.000000	0.000000	0.000000	22.622971	0.000000	0.000000	0.000000	0.000000	
6.289977	-19.983654	811.259504	49.629879	0.168065	0.000000	0.110418	0.000000	0.000000	0.000000	0.000000	0.000000	0.000000	0.000000	22.664936	0.000000	0.000000	0.000000	0.000000	
6.291641	-20.362417	812.493349	49.857452	0.167389	0.000000	0.110357	0.000000	0.000000	0.000000	0.000000	0.000000	0.000000	0.000000	22.702911	0.000000	0.000000	0.000000	0.000000	
6.293313	-20.734854	813.670321	50.083560	0.166708	0.000000	0.110297	0.000000	0.000000	0.000000	0.000000	0.000000	0.000000	0.000000	22.736797	0.000000	0.000000	0.000000	0.000000	
6.294975	-21.101361	814.787847	50.307539	0.166020	0.000000	0.110236	0.000000	0.000000	0.000000	0.000000	0.000000	0.000000	0.000000	22.766500	0.000000	0.000000	0.000000	0.000000	
6.296645	-21.462362	815.843370	50.528709	0.165326	0.000000	0.110175	0.000000	0.000000	0.000000	0.000000	0.000000	0.000000	0.000000	22.791938	0.000000	0.000000	0.000000	0.000000	
6.298308	-21.818311	816.834356	50.746377	0.164623	0.000000	0.110114	0.000000	0.000000	0.000000	0.000000	0.000000	0.000000	0.000000	22.813040	0.000000	0.000000	0.000000	0.000000	
6.299975	-22.169689	817.758293	50.959834	0.163912	0.000000	0.110052	0.000000	0.000000	0.000000	0.000000	0.000000	0.000000	0.000000	22.829743	0.000000	0.000000	0.000000	0.000000	
6.301647	-22.517000	818.612696	51.168360	0.163191	0.000000	0.109989	0.000000	0.000000	0.000000	0.000000	0.000000	0.000000	0.000000	22.841997	0.000000	0.000000	0.000000	0.000000	
6.303322	-22.860771	819.395107	51.371226	0.162461	0.000000	0.109926	0.000000	0.000000	0.000000	0.000000	0.000000	0.000000	0.000000	22.849763	0.000000	0.000000	0.000000	0.000000	
6.304975	-23.201550	820.103096	51.567693	0.161719	0.000000	0.109863	0.000000	0.000000	0.000000	0.000000	0.000000	0.000000	0.000000	22.853012	0.000000	0.000000	0.000000	0.000000	
6.306640	-23.539903	820.734266	51.757015	0.160967	0.000000	0.109798	0.000000	0.000000	0.000000	0.000000	0.000000	0.000000	0.000000	22.851728	0.000000	0.000000	0.000000	0.000000	
6.308305	-23.876412	821.286250	51.938442	0.160203	0.000000	0.109733	0.000000	0.000000	0.000000	0.000000	0.000000	0.000000	0.000000	22.845907	0.000000	0.000000	0.000000	0.000000	
6.309981	-24.211674	821.756716	52.111218	0.159428	0.000000	0.109666	0.000000	0.000000	0.000000	0.000000	0.000000	0.000000	0.000000	22.835555	0.000000	0.000000	0.000000	0.000000	
6.311643	-24.546297	822.143363	52.274588	0.158642	0.000000	0.109599	0.000000	0.000000	0.000000	0.000000	0.000000	0.000000	0.000000	22.820692	0.000000	0.000000	0.000000	0.000000	
6.313307	-24.880900	822.443927	52.427797	0.157844	0.000000	0.109530	0.000000	0.000000	0.000000	0.000000	0.000000	0.000000	0.000000	22.801350	0.000000	0.000000	0.000000	0.000000	
6.314974	-25.216108	822.656179	52.570091	0.157034	0.000000	0.109460	0.000000	0.000000	0.000000	0.000000	0.000000	0.000000	0.000000	22.777573	0.000000	0.000000	0.000000	0.000000	
6.316647	-25.552552	822.777925	52.700720	0.156213	0.000000	0.109389	0.000000	0.000000	0.000000	0.000000	0.000000	0.000000	0.000000	22.749416	0.000000	0.000000	0.000000	0.000000	
6.318313	-25.890866	822.807005	52.818942	0.155382	0.000000	0.109316	0.000000	0.000000	0.000000	0.000000	0.000000	0.000000	0.000000	22.716948	0.000000	0.000000	0.000000	0.000000	
6.319980	-26.231685	822.741295	52.924021	0.154540	0.000000	0.109241	0.000000	0.000000	0.000000	0.000000	0.000000	0.000000	0.000000	22.680248	0.000000	0.000000	0.000000	0.000000	
6.321641	-26.575643	822.578706	53.015232	0.153688	0.000000	0.109164	0.000000	0.000000	0.000000	0.000000	0.000000	0.000000	0.000000	22.639405	0.000000	0.000000	0.000000	0.000000	
6.323313	-26.923368	822.317185	53.091863	0.152828	0.000000	0.109085	0.000000	0.000000	0.000000	0.000000	0.000000	0.000000	0.000000	22.594522	0.000000	0.000000	0.000000	0.000000	
6.324974	-27.275485	821.954710	53.153215	0.151959	0.000000	0.109005	0.000000	0.000000	0.000000	0.000000	0.000000	0.000000	0.000000	22.545711	0.000000	0.000000	0.000000	0.000000	
6.326648	-27.632607	821.489293	53.198605	0.151082	0.000000	0.108922	0.000000	0.000000	0.000000	0.000000	0.000000	0.000000	0.000000	22.493094	0.000000	0.000000	0.000000	0.000000	
6.328310	-27.995341	820.918979	53.227368	0.150199	0.000000	0.108836	0.000000	0.000000	0.000000	0.000000	0.000000	0.000000	0.000000	22.436801	0.000000	0.000000	0.000000	0.000000	
6.329985	-28.364276	820.241844	53.238860	0.149310	0.000000	0.108749	0.000000	0.000000	0.000000	0.000000	0.000000	0.000000	0.000000	22.376973	0.000000	0.000000	0.000000	0.000000	
6.331642	-28.739989	819.455992	53.232457	0.148417	0.000000	0.108658	0.000000	0.000000	0.000000	0.000000	0.000000	0.000000	0.000000	22.313757	0.000000	0.000000	0.000000	0.000000	
6.333306	-29.123038	818.559558	53.207561	0.147521	0.000000	0.108565	0.000000	0.000000	0.000000	0.000000	0.000000	0.000000	0.000000	22.247306	0.000000	0.000000	0.000000	0.000000	
6.334980	-29.513962	817.550704	53.163598	0.146622	0.000000	0.108469	0.000000	0.000000	0.000000	0.000000	0.000000	0.000000	0.000000	22.177782	0.000000	0.000000	0.000000	0.000000	
6.336650	-29.913277	816.427619	53.100021	0.145722	0.000000	0.108369	0.000000	0.000000	0.000000	0.000000	0.000000	0.000000	0.000000	22.105350	0.000000	0.000000	0.000000	0.000000	
